<?xml version="1.0" encoding="UTF-8"?>
<svg version="1.1" viewBox="0 0 2048 1640" width="905" height="725" xmlns="http://www.w3.org/2000/svg">
<path transform="translate(0)" d="m0 0h2048v1640h-2048z" fill="#FEFEFD"/>
<path transform="translate(1106,428)" d="m0 0h2l-1 6-5 13 5-6h2l1 5v37l1 1v-11l3-27 2-11 1-2 5 1 12 9v2l4 2 5 4-1 7-10 19-13 25-9 20-3 12v18l10-13 11-9 7-4 4 1-2 13-4 11-8 10-8 16-1 3-1 19-3 18-2 7-4 1-1 4-3 60-20 30-12 17-4 5-2-1 14-32 12-26 1-3 1-159 1-52-4 11-2 15-2 44-3 131-1 28-8 16-12 23-7 11-3 4h-3l2-23 9-77 7-61 3-36v-15l-1-17h-2v10l-14 122-11 99h-3l-4-7-3-14-1-10-2-64v-40l14-46 20-68 6-20h3v19l12-40 7-16 7-10z" fill="#FE3453"/>
<path transform="translate(901,729)" d="m0 0h2l12 19 12 20 10 16 16 26 9 15 4 6 33 15 28 13 34 16 19 9 9 6v1l-11-1-42-7-63-11-9-2-25-17-9-7-11-11-12-18-9-16-4-16-1-9v-22l3-12z" fill="#FE3453"/>
<path transform="translate(917,708)" d="m0 0h2l5 10 8 6 13 7v4l-10 3-4 2 3 3 31 7 9 6 10 9 10 10 7 8 8 8 7 9v2l-9-2-38-13-1 1 10 6 24 13 26 13 15 10 10 9 14 14 7 8 6 6v2h2l4 6-9-3-24-10-33-15-37-17-19-9-4-5-8-15-10-21-10-19 3-1 12 12 6 4-13-13-7-8-25-25 1-7 7-14z" fill="#FE3453"/>
<path transform="translate(1105,914)" d="m0 0 4 1 10 9 11 9 13 11 11 9 14 12 14 11 10 9 11 9 13 11 11 9 14 12 10 8 15 13 11 9 11 10 11 9 28 24 1 3h-7l-12-5-27-18-16-12-19-12-10-4-46-25-17-10-14-9-2-4h9l11 4 12 7 22 15 17 12 8 5-14-11-21-16-14-10-13-10-19-14-21-16-14-10-13-10-19-14-7-6 3-3z" fill="#FE3453"/>
<path transform="translate(1038,532)" d="m0 0 3 1-6 8-23 23-8 7-5 4-7 8-10 10-8 10-12 16-1 3 3-4h2l2-4 5-5h2v-2l8-7 32-32 3 1-13 28-14 30-17 36-10 21-1 1-22 2h-14l1-6 12-29v-4l-11 12-6 7h-2l-8-21 1-5 11-9 15-14 8-7 10-9 11-9 13-12 8-7 10-9 8-7 10-9 11-9z" fill="#FE3453"/>
<path transform="translate(1418,625)" d="m0 0 7 1 15 9 11 8 8 9 8 15 8 20 5 16 2 10v19l-4 14-8 9-8 4-7 2-9-1-2-2-3-16-6-45-6-28-10-31-2-8z" fill="#FE3453"/>
<path transform="translate(680,998)" d="m0 0h2l-1 4-11 21-13 23-16 28-10 17-21 35-12 22-6 13-2 7v8l12 6 9 3-1 5-8 11-9 9-10 6h-6l-11-8-10-8-7-5 1-4 7-11 10-13 3-3 6 1 6 4-2-6v-6l49-98 10-18 8-11 9-10 8-8 8-7z" fill="#FE3453"/>
<path transform="translate(1407,628)" d="m0 0h5l6 23 11 46 9 42 2 11v5l-4-2-12-11-20-20-8-7-18-18-3-19-2-18v-13l8-5 22-12z" fill="#FE3453"/>
<path transform="translate(1177,488)" d="m0 0 7 1 14 8 16 11 5 5 3 5 2 12v11l-6 15-13 23-5 9-7 3-14 4-12 5-11 6-17 11-15 10-5 3h-4l2-20 3-15 4-6h21l24-4 16-5 8-6 8-16 2-10v-19l-2 6-2 16-3 5-7-1-10-9-8-7-3-4 1-8 9-10 5-4 9-4h9l-5-5-12-5-20-4-2-2 7-3z" fill="#FE3453"/>
<path transform="translate(1033,557)" d="m0 0 1 4-14 42v15l7 100 1 28h-3l-15-29-12-22-9-15-3-4-3 18h-4l-10-7 1-6 28-56 11-23 8-16 14-27z" fill="#FE3453"/>
<path transform="translate(887,770)" d="m0 0h2l7 35 4 13 7 11 13 16 9 11 6 7 9 6 23 8 26 12 21 10 22 12 16 9 8 6-1 3-9 1-17-5-31-13-65-30-31-14-3-4-14-41-2-11z" fill="#FE3453"/>
<path transform="translate(1347,1091)" d="m0 0 5 1 18 14 14 11 18 14 2 2v20l-3 16-7 13-5 4h-8l-9-5-9-7-6-5-9-11-9-12v-2l5 1 11 5 8 2-3-13-8-18-9-15-1-1v-6z" fill="#FE3453"/>
<path transform="translate(784,867)" d="m0 0 11 1 26 8 11 4 1 3-10 18-15 24-11 12-7 7-18 12-6 3h-4l1-10 10-48 7-29 2-4z" fill="#FE3453"/>
<path transform="translate(811,841)" d="m0 0 6 1 36 17 22 11 19 10 13 7 3 3-1 3-17 9-22 12-8 3-5-1-4-12-6-25-16-6-34-9-11-4-1-3 7-8 8-5z" fill="#FE3453"/>
<path transform="translate(720,1008)" d="m0 0h5l-2 8-9 17-10 14-11 12-7 8-26 26-7 6-7 8-10 10-8 11-6 11-9 12-9 10h-3l1-5 8-20 8-15 14-21 11-14 12-14 9-11 11-12 9-11 20-20 10-7z" fill="#FE3453"/>
<path transform="translate(1165,521)" d="m0 0h2l-1 6-3 7v5l10 7 8 7 5 9 3 9-1 3-10 6-19 5-14 2h-14l-9-3-2-2v-8l12-17 9-19 9-9z" fill="#FE3453"/>
<path transform="translate(924,708)" d="m0 0h9l28 5 13 4 11 6 16 11 18 14 13 10 13 12 7 6 9 11 4 8-1 7-3 1-6-4-13-11-13-12-13-10-12-6-18-6-30-8-15-3-2-1v-3l5-1 22 1h18l-4-5-14-8-15-6-24-8-3-2z" fill="#FE3453"/>
<path transform="translate(1179,968)" d="m0 0 9 3 48 24 12 8 10 9 18 18 7 8 7 7 5 6 12 9 21 8 11 7 4 6v7l-5 8-5-1-28-28-14-9-12-7-28-21-14-11-17-14-11-9-13-11-14-12-3-3z" fill="#FE3453"/>
<path transform="translate(838,821)" d="m0 0h12l13 5 9 6 12 12 11 14 10 13 5 9-1 3-21-9-31-16-19-10-16-8-9-4 1-3 19-10z" fill="#FE3453"/>
<path transform="translate(738,953)" d="m0 0h2l-1 17-2 15-5 6-8 7-9 9-8 7-10 9-4 2v2l-8 7-13 11-3-1 10-24 12-23 10-14 9-10 7-7 17-11z" fill="#FE3453"/>
<path transform="translate(1322,466)" d="m0 0h5l12 23 15 33 16 36 16 39 9 21-1 4-7-10-10-18-14-24-13-24-12-21-15-27-11-21 2-5z" fill="#FE3453"/>
<path transform="translate(1070,932)" d="m0 0 7 1 12 7 24 16 7 14 7 18-1 4-23-14-19-12-20-12-16-10-6-4 1-2 22-5z" fill="#FE3453"/>
<path transform="translate(872,776)" d="m0 0h2l3 9 5 32v11l-3 2-15-6-14-6h-16l-14 2 2-4 15-13 14-11 15-12z" fill="#FE3453"/>
<path transform="translate(1148,613)" d="m0 0h2l-2 6-5 11-2 8-1 17-4 8-8 9-7 8-9 10-7 7-2-1 2-19 4-25 9-10 27-27z" fill="#FE3453"/>
<path transform="translate(1021,884)" d="m0 0 9 1 49 11 23 6 2 1-2 4-9 8-13 8-7 1-16-14-13-9-19-12-4-3z" fill="#FE3453"/>
<path transform="translate(1144,671)" d="m0 0 3 3 4 19v9l-5 4-9 4-21 7-20 5-3-1 6-8 11-12 18-18 11-9z" fill="#FE3453"/>
<path transform="translate(1166,425)" d="m0 0h25l40 5v2l-29 6-44 8h-6l-11-6-10-9v-1z" fill="#FE3453"/>
<path transform="translate(984,755)" d="m0 0 10 3 10 4 15 10 14 11 14 12 8 10-1 5-5 4-5-1-9-6-22-18-16-15-11-14z" fill="#FE3453"/>
<path transform="translate(1124,736)" d="m0 0h4l-2 5-10 14-10 13-5 6-9-2-21-9-6-5 3-3 39-14z" fill="#FE3453"/>
<path transform="translate(1137,406)" d="m0 0 11 1 34 7 12 3 1 3-25 3-14 1h-26l-6-3-2-2 1-4 7-6z" fill="#FE3453"/>
<path transform="translate(1297,1099)" d="m0 0 9 2 15 5 13 2 8 9 13 21 3 5v2l-5-1-18-12-16-12-13-11-9-8z" fill="#FE3453"/>
<path transform="translate(838,889)" d="m0 0h2l5 11 4 14v6l-14 6-15 5-6 1 1-5 8-16 10-16z" fill="#FE3453"/>
<path transform="translate(769,887)" d="m0 0h2l-1 10-6 27-8 30-6 15-4 5h-2l6-46 6-18 11-21z" fill="#FE3453"/>
<path transform="translate(1338,448)" d="m0 0h5l-1 4-8 5-21 7-11 2h-21l-13-3-3-3 8-4 12-2h26l16-3z" fill="#FE3453"/>
<path transform="translate(933,690)" d="m0 0h25l10 2 11 9v2h2l7 8 9 9 8 10v2l-5-2-15-10-14-10-19-11-14-5-5-2z" fill="#FE3453"/>
<path transform="translate(1148,711)" d="m0 0 4 1-5 5-17 8-29 11-15 5-10 1 6-7 10-6 18-8 29-8z" fill="#FE3453"/>
<path transform="translate(1236,436)" d="m0 0 17 1 2 1v2l-21 6-26 5-8 1h-11l-10-2 1-3 18-5 26-5z" fill="#FE3453"/>
<path transform="translate(1056,765)" d="m0 0 10 2 20 8 9 4-2 4-10 9-10 7h-4l-1-3-1-16-4-6-8-7z" fill="#FE3453"/>
<path transform="translate(1272,443)" d="m0 0h9l-2 4-13 8-10 5-4 1-15-1-9-2-2-1v-3l16-5z" fill="#FE3453"/>
<path transform="translate(1173,500)" d="m0 0h7l8 2-1 4-14 7-21 7-5 1h-9l1-5 11-7 15-7z" fill="#FE3453"/>
<path transform="translate(1128,970)" d="m0 0 5 1 11 8 18 14 4 3v2l-11-1-10-3-10-7-6-7-1-2z" fill="#FE3453"/>
<path transform="translate(885,383)" d="m0 0 7 1 14 10v2h-7l-6-1 8 4 1 3-1 1h-8l-17-5-5-2v-3l9-5z" fill="#FE3453"/>
<path transform="translate(975,907)" d="m0 0 14 5 26 12 12 7 2 3-1 1-12-1-17-8-24-16z" fill="#FE3453"/>
<path transform="translate(922,696)" d="m0 0h13l11 3 14 7 1 2h-9l-16-2-17-1-1-3z" fill="#FE3453"/>
<path transform="translate(1168,622)" d="m0 0 3 1 3 21v6l-3 2-8-1-3-3v-8l4-12z" fill="#FE3453"/>
<path transform="translate(740,928)" d="m0 0h2l-1 5-6 12-7 9-10 7-7 3 2-5 8-9 8-10 9-11z" fill="#FE3453"/>
<path transform="translate(860,373)" d="m0 0 2 2-5 10-4 5-6-1-10-6 2-4 11-4z" fill="#FE3453"/>
<path transform="translate(935,719)" d="m0 0h8l17 6 15 9v2h-7l-16-6-16-8z" fill="#FE3453"/>
<path transform="translate(617,1156)" d="m0 0h1v9l-6 12-2 2-7 1-3-2 1-5 6-8 8-8z" fill="#FE3453"/>
<path transform="translate(872,401)" d="m0 0 14 2 16 6v2l-5 1h-11l-9-2-7-4v-4z" fill="#FE3453"/>
<path transform="translate(1080,810)" d="m0 0 3 1 1 11-3 6-7 3-5-1 1-5 9-14z" fill="#FE3453"/>
<path transform="translate(779,998)" d="m0 0h3l1 3v11l-1 1-7 1h-10v-3l9-9z" fill="#FE3453"/>
<path transform="translate(1233,575)" d="m0 0h8l3 2 1 3v12l-4-2-9-7-5-5 1-2z" fill="#FE3453"/>
<path transform="translate(1112,908)" d="m0 0 6 1 9 7 9 9 1 4-6-2-9-7-9-9z" fill="#FE3453"/>
<path transform="translate(911,401)" d="m0 0 6 1 3 3v5l-4 4h-8l-1-1v-8z" fill="#FE3453"/>
<path transform="translate(1365,508)" d="m0 0h9l1 4-4 6-6 6h-2v-11z" fill="#FE3453"/>
<path transform="translate(1261,489)" d="m0 0h6l2 1-1 5-6 10h-3l-2-10 1-5z" fill="#FE3453"/>
<path transform="translate(1316,435)" d="m0 0 6 1 5 3-1 2-18 2h-5l-1-3 9-4z" fill="#FE3453"/>
<path transform="translate(665,906)" d="m0 0h7l2 2-1 7-5 6h-3l-1-9-1-5z" fill="#FE3453"/>
<path transform="translate(812,408)" d="m0 0 4 1 1 4-6 7-4 2h-4l2-5 6-8z" fill="#FE3453"/>
<path transform="translate(882,414)" d="m0 0h17v3l-7 3h-8l-4-2v-3z" fill="#FE3453"/>
<path transform="translate(1160,888)" d="m0 0h4l-2 5-8 5h-6l-2-1v-3z" fill="#FE3453"/>
<path transform="translate(1324,443)" d="m0 0h5v3l-10 4-11 1v-3l6-3z" fill="#FE3453"/>
<path transform="translate(1146,853)" d="m0 0 4 1 1 4-7 4h-10l1-3 8-5z" fill="#FE3453"/>
<path transform="translate(1201,598)" d="m0 0h8l2 3-10 6-6 1 1-5z" fill="#FE3453"/>
<path transform="translate(802,378)" d="m0 0h3v13l-7-4-4-5 5-3z" fill="#FE3453"/>
<path transform="translate(1300,429)" d="m0 0h13l1 3-10 3h-8v-4z" fill="#FE3453"/>
<path transform="translate(702,937)" d="m0 0 4 1-1 5-4 5-4-2 1-6z" fill="#FE3453"/>
<path transform="translate(1336,461)" d="m0 0h4l1 3v9l-5-1-1-2v-8z" fill="#FE3453"/>
<path transform="translate(1172,685)" d="m0 0h7l-1 7-3 3h-2l-2-9z" fill="#FE3453"/>
<path transform="translate(1161,458)" d="m0 0 6 1 1 5-1 1-8-1-1-4z" fill="#FE3453"/>
<path transform="translate(1407,586)" d="m0 0 4 2 3 6v2l-5-1-5-4 1-4z" fill="#FE3453"/>
<path transform="translate(1293,445)" d="m0 0 5 1v4l-9 1v-4z" fill="#FE3453"/>
<path transform="translate(935,445)" d="m0 0 3 1 1 4-2 3h-6l1-6z" fill="#FE3453"/>
<path transform="translate(1109,871)" d="m0 0h7l4 4-1 1-10-1z" fill="#FE3453"/>
<path transform="translate(1360,1060)" d="m0 0 4 2-1 5-4 1-1-4z" fill="#FE3453"/>
<path transform="translate(1399,565)" d="m0 0 3 2v3l-8 1v-4z" fill="#FE3453"/>
<path transform="translate(1356,578)" d="m0 0 5 1-1 4-4 1-1-5z" fill="#FE3453"/>
<path transform="translate(1106,562)" d="m0 0 2 1 2 11-3-1-1-3z" fill="#FFFFFE"/>
<path transform="translate(1339,560)" d="m0 0 5 1-1 4h-5z" fill="#FE3453"/>
</svg>
